<svg xmlns="http://www.w3.org/2000/svg" width="700" height="420" viewBox="0 0 700 420"><rect width="700" height="420" fill="#f4f6f9" rx="16"/><rect x="1" y="1" width="698" height="418" fill="none" stroke="#d0d4db" stroke-width="1" rx="16"/><text x="30" y="38" fill="#1a1a2e" font-family="Arial,Helvetica,sans-serif" font-size="18" font-weight="700">GhostCommit Metrics</text><text x="30" y="56" fill="#888" font-family="Arial,Helvetica,sans-serif" font-size="12">Coding activity across all projects</text><rect x="442" y="18" width="75" height="40" rx="8" fill="#e8f5e9"/><text x="479" y="34" fill="#2e7d32" font-family="Arial,Helvetica,sans-serif" font-size="15" font-weight="700" text-anchor="middle">119</text><text x="479" y="49" fill="#4caf50" font-family="Arial,Helvetica,sans-serif" font-size="9" text-anchor="middle">LINES</text><rect x="525" y="18" width="75" height="40" rx="8" fill="#e3f2fd"/><text x="562" y="34" fill="#1565c0" font-family="Arial,Helvetica,sans-serif" font-size="15" font-weight="700" text-anchor="middle">11</text><text x="562" y="49" fill="#1976d2" font-family="Arial,Helvetica,sans-serif" font-size="9" text-anchor="middle">SESSIONS</text><rect x="608" y="18" width="75" height="40" rx="8" fill="#fff3e0"/><text x="645" y="34" fill="#e65100" font-family="Arial,Helvetica,sans-serif" font-size="15" font-weight="700" text-anchor="middle">119</text><text x="645" y="49" fill="#ef6c00" font-family="Arial,Helvetica,sans-serif" font-size="9" text-anchor="middle">SAVES</text><g transform="translate(30,115)"><rect width="155" height="115" rx="10" fill="#fff" stroke="#d0d4db" stroke-width="1"/><g transform="translate(8,8)"><rect width="28" height="28" rx="6" fill="#F7DF1E"/><text x="14" y="19" fill="#1a1a2e" font-family="Arial,Helvetica,sans-serif" font-size="10" font-weight="700" text-anchor="middle">JS</text></g><text x="42" y="20" fill="#1a1a2e" font-family="Arial,Helvetica,sans-serif" font-size="13" font-weight="700">.js</text><text x="42" y="34" fill="#888" font-family="Arial,Helvetica,sans-serif" font-size="10">64 files</text><text x="145" y="52" fill="#F7DF1E" font-family="Arial,Helvetica,sans-serif" font-size="22" font-weight="700" text-anchor="end">64</text><text x="145" y="66" fill="#aaa" font-family="Arial,Helvetica,sans-serif" font-size="9" text-anchor="end">lines</text><rect x="8" y="90" width="139" height="6" rx="3" fill="#eee"/><rect x="8" y="90" width="139" height="6" rx="3" fill="#F7DF1E"/></g><g transform="translate(195,115)"><rect width="155" height="115" rx="10" fill="#fff" stroke="#d0d4db" stroke-width="1"/><g transform="translate(8,8)"><rect width="28" height="28" rx="6" fill="#292929"/><text x="14" y="19" fill="#fff" font-family="Arial,Helvetica,sans-serif" font-size="10" font-weight="700" text-anchor="middle">JSON</text></g><text x="42" y="20" fill="#1a1a2e" font-family="Arial,Helvetica,sans-serif" font-size="13" font-weight="700">.json</text><text x="42" y="34" fill="#888" font-family="Arial,Helvetica,sans-serif" font-size="10">22 files</text><text x="145" y="52" fill="#292929" font-family="Arial,Helvetica,sans-serif" font-size="22" font-weight="700" text-anchor="end">22</text><text x="145" y="66" fill="#aaa" font-family="Arial,Helvetica,sans-serif" font-size="9" text-anchor="end">lines</text><rect x="8" y="90" width="139" height="6" rx="3" fill="#eee"/><rect x="8" y="90" width="48" height="6" rx="3" fill="#292929"/></g><g transform="translate(360,115)"><rect width="155" height="115" rx="10" fill="#fff" stroke="#d0d4db" stroke-width="1"/><g transform="translate(8,8)"><rect width="28" height="28" rx="6" fill="#E34F26"/><text x="14" y="19" fill="#fff" font-family="Arial,Helvetica,sans-serif" font-size="10" font-weight="700" text-anchor="middle">HTML</text></g><text x="42" y="20" fill="#1a1a2e" font-family="Arial,Helvetica,sans-serif" font-size="13" font-weight="700">.html</text><text x="42" y="34" fill="#888" font-family="Arial,Helvetica,sans-serif" font-size="10">22 files</text><text x="145" y="52" fill="#E34F26" font-family="Arial,Helvetica,sans-serif" font-size="22" font-weight="700" text-anchor="end">22</text><text x="145" y="66" fill="#aaa" font-family="Arial,Helvetica,sans-serif" font-size="9" text-anchor="end">lines</text><rect x="8" y="90" width="139" height="6" rx="3" fill="#eee"/><rect x="8" y="90" width="48" height="6" rx="3" fill="#E34F26"/></g><g transform="translate(525,115)"><rect width="155" height="115" rx="10" fill="#fff" stroke="#d0d4db" stroke-width="1"/><g transform="translate(8,8)"><rect width="28" height="28" rx="6" fill="#083FA1"/><text x="14" y="19" fill="#fff" font-family="Arial,Helvetica,sans-serif" font-size="10" font-weight="700" text-anchor="middle">MD</text></g><text x="42" y="20" fill="#1a1a2e" font-family="Arial,Helvetica,sans-serif" font-size="13" font-weight="700">.md</text><text x="42" y="34" fill="#888" font-family="Arial,Helvetica,sans-serif" font-size="10">11 files</text><text x="145" y="52" fill="#083FA1" font-family="Arial,Helvetica,sans-serif" font-size="22" font-weight="700" text-anchor="end">11</text><text x="145" y="66" fill="#aaa" font-family="Arial,Helvetica,sans-serif" font-size="9" text-anchor="end">lines</text><rect x="8" y="90" width="139" height="6" rx="3" fill="#eee"/><rect x="8" y="90" width="24" height="6" rx="3" fill="#083FA1"/></g><text x="30" y="406" fill="#bbb" font-family="Arial,Helvetica,sans-serif" font-size="9">Refining Loop project's JSON data and configuration settings.</text></svg>