<svg xmlns="http://www.w3.org/2000/svg" width="550" height="150" viewBox="0 0 550 150"><rect width="550" height="150" fill="#0d1117" rx="10"/><rect x=".5" y=".5" width="549" height="149" fill="none" stroke="#21262d" rx="10"/><text x="25" y="28" fill="#58a6ff" font-family="-apple-system,BlinkMacSystemFont,Segoe UI,Noto Sans,sans-serif" font-size="15" font-weight="700">👻 GhostCommit <tspan fill="#8b949e" font-weight="400">- Today</tspan></text><text x="25" y="50" fill="#c9d1d9" font-family="SFMono-Regular,Consolas,Liberation Mono,monospace" font-size="11">31 commits</text><circle cx="108" cy="46" r="2" fill="#8b949e"/><text x="118" y="50" fill="#c9d1d9" font-family="SFMono-Regular,Consolas,Liberation Mono,monospace" font-size="11">1 echoes</text><circle cx="200" cy="46" r="2" fill="#8b949e"/><text x="210" y="50" fill="#c9d1d9" font-family="SFMono-Regular,Consolas,Liberation Mono,monospace" font-size="11">DailyFeed</text><rect x="25" y="70" width="20" height="20" rx="4" fill="#292929"/><text x="35" y="84" fill="#fff" font-family="SFMono-Regular,Consolas,Liberation Mono,monospace" font-size="9" font-weight="700" text-anchor="middle">JN</text><text x="51" y="84" fill="#c9d1d9" font-family="SFMono-Regular,Consolas,Liberation Mono,monospace" font-size="11">.json</text><rect x="97" y="74" width="120" height="10" rx="3" fill="#21262d"/><rect x="97" y="74" width="120" height="10" rx="3" fill="#292929"/><text x="229" y="84" fill="#c9d1d9" font-family="SFMono-Regular,Consolas,Liberation Mono,monospace" font-size="11">13</text><rect x="290" y="70" width="20" height="20" rx="4" fill="#3572A5"/><text x="300" y="84" fill="#fff" font-family="SFMono-Regular,Consolas,Liberation Mono,monospace" font-size="9" font-weight="700" text-anchor="middle">PY</text><text x="316" y="84" fill="#c9d1d9" font-family="SFMono-Regular,Consolas,Liberation Mono,monospace" font-size="11">.py</text><rect x="362" y="74" width="120" height="10" rx="3" fill="#21262d"/><rect x="362" y="74" width="120" height="10" rx="3" fill="#3572A5"/><text x="494" y="84" fill="#c9d1d9" font-family="SFMono-Regular,Consolas,Liberation Mono,monospace" font-size="11">13</text><rect x="25" y="96" width="20" height="20" rx="4" fill="#083FA1"/><text x="35" y="110" fill="#fff" font-family="SFMono-Regular,Consolas,Liberation Mono,monospace" font-size="9" font-weight="700" text-anchor="middle">MD</text><text x="51" y="110" fill="#c9d1d9" font-family="SFMono-Regular,Consolas,Liberation Mono,monospace" font-size="11">.md</text><rect x="97" y="100" width="120" height="10" rx="3" fill="#21262d"/><rect x="97" y="100" width="46" height="10" rx="3" fill="#083FA1"/><text x="229" y="110" fill="#c9d1d9" font-family="SFMono-Regular,Consolas,Liberation Mono,monospace" font-size="11">5</text><text x="25" y="138" fill="#8b949e" font-family="SFMono-Regular,Consolas,Liberation Mono,monospace" font-size="11">↳ main.py</text><text x="525" y="138" fill="#8b949e" font-family="SFMono-Regular,Consolas,Liberation Mono,monospace" font-size="10" text-anchor="end">14:26 GMT-3</text></svg>