<svg xmlns="http://www.w3.org/2000/svg" width="550" height="195" viewBox="0 0 550 195"><rect width="550" height="195" fill="#0d1117" rx="10"/><rect x=".5" y=".5" width="549" height="194" fill="none" stroke="#21262d" rx="10"/><text x="25" y="30" fill="#58a6ff" font-family="-apple-system,BlinkMacSystemFont,Segoe UI,Noto Sans,sans-serif" font-size="16" font-weight="700">👻 GhostCommit</text><text x="25" y="54" fill="#c9d1d9" font-family="SFMono-Regular,Consolas,Liberation Mono,monospace" font-size="12">153 commits</text><circle cx="100" cy="50" r="2" fill="#8b949e"/><text x="110" y="54" fill="#c9d1d9" font-family="SFMono-Regular,Consolas,Liberation Mono,monospace" font-size="12">14 echoes</text><circle cx="200" cy="50" r="2" fill="#8b949e"/><text x="210" y="54" fill="#8b949e" font-family="SFMono-Regular,Consolas,Liberation Mono,monospace" font-size="12">Loop</text><path d="M1 1h22v22H1zm4 17l4-2c1 2 2 3 4 3s3-1 3-3c0-5-9-3-9-8 0-4 4-6 8-5l-1 3-3 1c-1-2-2-2-4-2s-2 1-2 2c0 4 9 3 9 8 0 4-3 6-8 5z" fill="#F7DF1E" transform="translate(25,82) scale(1)"/><text x="49" y="97" fill="#c9d1d9" font-family="SFMono-Regular,Consolas,Liberation Mono,monospace" font-size="11">.js</text><rect x="97" y="87" width="120" height="10" rx="3" fill="#21262d"/><rect x="97" y="87" width="120" height="10" rx="3" fill="#F7DF1E"/><text x="229" y="97" fill="#c9d1d9" font-family="SFMono-Regular,Consolas,Liberation Mono,monospace" font-size="11">64</text><path d="M5 3c-2 0-3 1-3 3v4c0 2-1 2-1 2s1 0 1 2v4c0 2 1 3 3 3h2v-2H6c-1 0-1-1-1-2v-4c0-2-1-3-1-3s1-1 1-3V6c0-1 0-2 1-2h1V3H5zm14 0c2 0 3 1 3 3v4c0 2 1 2 1 2s-1 0-1 2v4c0 2-1 3-3 3h-2v-2h1c1 0 1-1 1-2v-4c0-2 1-3 1-3s-1-1-1-3V6c0-1 0-2-1-2h-1V3h2z" fill="#292929" transform="translate(290,82) scale(1)"/><text x="314" y="97" fill="#c9d1d9" font-family="SFMono-Regular,Consolas,Liberation Mono,monospace" font-size="11">.json</text><rect x="362" y="87" width="120" height="10" rx="3" fill="#21262d"/><rect x="362" y="87" width="84" height="10" rx="3" fill="#292929"/><text x="494" y="97" fill="#c9d1d9" font-family="SFMono-Regular,Consolas,Liberation Mono,monospace" font-size="11">45</text><path d="M3 3h18l-2 16-7 2-7-2 1-6h3l0 3 4 1 4-1 1-4H8l-1-4h11l1-4H4z" fill="#E34F26" transform="translate(25,108) scale(1)"/><text x="49" y="123" fill="#c9d1d9" font-family="SFMono-Regular,Consolas,Liberation Mono,monospace" font-size="11">.html</text><rect x="97" y="113" width="120" height="10" rx="3" fill="#21262d"/><rect x="97" y="113" width="41" height="10" rx="3" fill="#E34F26"/><text x="229" y="123" fill="#c9d1d9" font-family="SFMono-Regular,Consolas,Liberation Mono,monospace" font-size="11">22</text><path d="M3 3h18v18H3zm3 2v14h12V5h-3v8l-3-4-3 4V5H6z" fill="#083FA1" transform="translate(290,108) scale(1)"/><text x="314" y="123" fill="#c9d1d9" font-family="SFMono-Regular,Consolas,Liberation Mono,monospace" font-size="11">.md</text><rect x="362" y="113" width="120" height="10" rx="3" fill="#21262d"/><rect x="362" y="113" width="41" height="10" rx="3" fill="#083FA1"/><text x="494" y="123" fill="#c9d1d9" font-family="SFMono-Regular,Consolas,Liberation Mono,monospace" font-size="11">22</text><text x="25" y="180" fill="#8b949e" font-family="SFMono-Regular,Consolas,Liberation Mono,monospace" font-size="11">↳ package-lock.json</text><text x="525" y="180" fill="#8b949e" font-family="SFMono-Regular,Consolas,Liberation Mono,monospace" font-size="9" text-anchor="end">Updated 23:59</text></svg>