<svg xmlns="http://www.w3.org/2000/svg" width="550" height="195" viewBox="0 0 550 195"><defs><clipPath id="c"><rect width="550" height="195" rx="10"/></clipPath></defs><rect width="550" height="195" fill="#0d1117" rx="10"/><rect x=".5" y=".5" width="549" height="194" fill="none" stroke="#21262d" rx="10"/><g clip-path="url(#c)"><text x="25" y="30" fill="#58a6ff" font-family="-apple-system,BlinkMacSystemFont,Segoe UI,Noto Sans,sans-serif" font-size="16" font-weight="700">👻 GhostCommit</text><text x="25" y="52" fill="#c9d1d9" font-family="SFMono-Regular,Consolas,Liberation Mono,monospace" font-size="12">130 commits</text><circle cx="105" cy="48" r="2" fill="#8b949e"/><text x="115" y="52" fill="#c9d1d9" font-family="SFMono-Regular,Consolas,Liberation Mono,monospace" font-size="12">13 echoes</text><circle cx="215" cy="48" r="2" fill="#8b949e"/><text x="225" y="52" fill="#c9d1d9" font-family="SFMono-Regular,Consolas,Liberation Mono,monospace" font-size="12">Loop</text><image href="https://cdn.simpleicons.org/javascript/%23ccc" x="25" y="82" width="20" height="20" /><text x="51" y="97" fill="#c9d1d9" font-family="SFMono-Regular,Consolas,Liberation Mono,monospace" font-size="11">.js</text><rect x="97" y="87" width="120" height="10" rx="3" fill="#21262d"/><rect x="97" y="87" width="120" height="10" rx="3" fill="#F7DF1E"/><text x="231" y="97" fill="#c9d1d9" font-family="SFMono-Regular,Consolas,Liberation Mono,monospace" font-size="11" text-anchor="end">64</text><image href="https://cdn.simpleicons.org/json/%23ccc" x="290" y="82" width="20" height="20" /><text x="316" y="97" fill="#c9d1d9" font-family="SFMono-Regular,Consolas,Liberation Mono,monospace" font-size="11">.json</text><rect x="362" y="87" width="120" height="10" rx="3" fill="#21262d"/><rect x="362" y="87" width="41" height="10" rx="3" fill="#292929"/><text x="496" y="97" fill="#c9d1d9" font-family="SFMono-Regular,Consolas,Liberation Mono,monospace" font-size="11" text-anchor="end">22</text><image href="https://cdn.simpleicons.org/html5/%23ccc" x="25" y="108" width="20" height="20" /><text x="51" y="123" fill="#c9d1d9" font-family="SFMono-Regular,Consolas,Liberation Mono,monospace" font-size="11">.html</text><rect x="97" y="113" width="120" height="10" rx="3" fill="#21262d"/><rect x="97" y="113" width="41" height="10" rx="3" fill="#E34F26"/><text x="231" y="123" fill="#c9d1d9" font-family="SFMono-Regular,Consolas,Liberation Mono,monospace" font-size="11" text-anchor="end">22</text><image href="https://cdn.simpleicons.org/markdown/%23ccc" x="290" y="108" width="20" height="20" /><text x="316" y="123" fill="#c9d1d9" font-family="SFMono-Regular,Consolas,Liberation Mono,monospace" font-size="11">.md</text><rect x="362" y="113" width="120" height="10" rx="3" fill="#21262d"/><rect x="362" y="113" width="41" height="10" rx="3" fill="#083FA1"/><text x="496" y="123" fill="#c9d1d9" font-family="SFMono-Regular,Consolas,Liberation Mono,monospace" font-size="11" text-anchor="end">22</text><text x="25" y="178" fill="#8b949e" font-family="SFMono-Regular,Consolas,Liberation Mono,monospace" font-size="11">↳ STRUCTURE.md</text><text x="525" y="178" fill="#8b949e" font-family="SFMono-Regular,Consolas,Liberation Mono,monospace" font-size="9" text-anchor="end">Updated 23:55</text></g></svg>