<svg xmlns="http://www.w3.org/2000/svg" xmlns:xlink="http://www.w3.org/1999/xlink" width="550" height="158" viewBox="0 0 550 158"><rect width="550" height="158" fill="#0d1117" rx="10"/><rect x=".5" y=".5" width="549" height="157" fill="none" stroke="#21262d" rx="10"/><text x="25" y="28" fill="#58a6ff" font-family="-apple-system,BlinkMacSystemFont,Segoe UI,Noto Sans,sans-serif" font-size="15" font-weight="700">👻 GhostCommit</text><text x="25" y="50" fill="#c9d1d9" font-family="SFMono-Regular,Consolas,Liberation Mono,monospace" font-size="11">177 commits</text><circle cx="95" cy="46" r="2" fill="#8b949e"/><text x="105" y="50" fill="#c9d1d9" font-family="SFMono-Regular,Consolas,Liberation Mono,monospace" font-size="11">16 echoes</text><circle cx="180" cy="46" r="2" fill="#8b949e"/><text x="190" y="50" fill="#8b949e" font-family="SFMono-Regular,Consolas,Liberation Mono,monospace" font-size="11">Loop</text><image xlink:href="https://go-skill-icons.vercel.app/api/icons?i=javascript&theme=dark" x="25" y="80" width="18" height="18" /><text x="49" y="94" fill="#c9d1d9" font-family="SFMono-Regular,Consolas,Liberation Mono,monospace" font-size="11">.js</text><rect x="97" y="84" width="120" height="10" rx="3" fill="#21262d"/><rect x="97" y="84" width="120" height="10" rx="3" fill="#F7DF1E"/><text x="229" y="94" fill="#c9d1d9" font-family="SFMono-Regular,Consolas,Liberation Mono,monospace" font-size="11">80</text><image xlink:href="https://go-skill-icons.vercel.app/api/icons?i=json&theme=dark" x="290" y="80" width="18" height="18" /><text x="314" y="94" fill="#c9d1d9" font-family="SFMono-Regular,Consolas,Liberation Mono,monospace" font-size="11">.json</text><rect x="362" y="84" width="120" height="10" rx="3" fill="#21262d"/><rect x="362" y="84" width="68" height="10" rx="3" fill="#292929"/><text x="494" y="94" fill="#c9d1d9" font-family="SFMono-Regular,Consolas,Liberation Mono,monospace" font-size="11">45</text><image xlink:href="https://go-skill-icons.vercel.app/api/icons?i=markdown&theme=dark" x="25" y="106" width="18" height="18" /><text x="49" y="120" fill="#c9d1d9" font-family="SFMono-Regular,Consolas,Liberation Mono,monospace" font-size="11">.md</text><rect x="97" y="110" width="120" height="10" rx="3" fill="#21262d"/><rect x="97" y="110" width="45" height="10" rx="3" fill="#083FA1"/><text x="229" y="120" fill="#c9d1d9" font-family="SFMono-Regular,Consolas,Liberation Mono,monospace" font-size="11">30</text><image xlink:href="https://go-skill-icons.vercel.app/api/icons?i=html&theme=dark" x="290" y="106" width="18" height="18" /><text x="314" y="120" fill="#c9d1d9" font-family="SFMono-Regular,Consolas,Liberation Mono,monospace" font-size="11">.html</text><rect x="362" y="110" width="120" height="10" rx="3" fill="#21262d"/><rect x="362" y="110" width="33" height="10" rx="3" fill="#E34F26"/><text x="494" y="120" fill="#c9d1d9" font-family="SFMono-Regular,Consolas,Liberation Mono,monospace" font-size="11">22</text><text x="25" y="142" fill="#8b949e" font-family="SFMono-Regular,Consolas,Liberation Mono,monospace" font-size="10">↳ main.js</text><text x="525" y="142" fill="#8b949e" font-family="SFMono-Regular,Consolas,Liberation Mono,monospace" font-size="8" text-anchor="end">03:07 UTC</text></svg>