<svg xmlns="http://www.w3.org/2000/svg" width="550" height="180" viewBox="0 0 550 180"><rect width="550" height="180" fill="#0d1117" rx="10"/><rect x=".5" y=".5" width="549" height="179" fill="none" stroke="#21262d" rx="10"/><text x="25" y="30" fill="#58a6ff" font-family="-apple-system,BlinkMacSystemFont,Segoe UI,Noto Sans,sans-serif" font-size="16" font-weight="700">&#x1F47B; GhostCommit</text><text x="25" y="50" fill="#c9d1d9" font-family="SFMono-Regular,Consolas,Liberation Mono,monospace" font-size="12">119 commits</text><circle cx="105" cy="46" r="2" fill="#8b949e"/><text x="115" y="50" fill="#c9d1d9" font-family="SFMono-Regular,Consolas,Liberation Mono,monospace" font-size="12">12 echoes</text><circle cx="215" cy="46" r="2" fill="#8b949e"/><text x="225" y="50" fill="#c9d1d9" font-family="SFMono-Regular,Consolas,Liberation Mono,monospace" font-size="12">Loop</text><g transform="translate(25,106)"><rect width="20" height="20" rx="4" fill="#F7DF1E"/><text x="10" y="14" fill="#1a1a2e" font-family="-apple-system,BlinkMacSystemFont,Segoe UI,Noto Sans,sans-serif" font-size="8" font-weight="700" text-anchor="middle">JS</text></g><text x="53" y="120" fill="#c9d1d9" font-family="SFMono-Regular,Consolas,Liberation Mono,monospace" font-size="11">.js</text><rect x="90" y="110" width="140" height="10" rx="3" fill="#21262d"/><rect x="90" y="110" width="140" height="10" rx="3" fill="#F7DF1E"/><text x="240" y="120" fill="#c9d1d9" font-family="SFMono-Regular,Consolas,Liberation Mono,monospace" font-size="10" text-anchor="end">64</text><g transform="translate(285,106)"><rect width="20" height="20" rx="4" fill="#292929"/><text x="10" y="14" fill="#fff" font-family="-apple-system,BlinkMacSystemFont,Segoe UI,Noto Sans,sans-serif" font-size="8" font-weight="700" text-anchor="middle">JSON</text></g><text x="313" y="120" fill="#c9d1d9" font-family="SFMono-Regular,Consolas,Liberation Mono,monospace" font-size="11">.json</text><rect x="350" y="110" width="140" height="10" rx="3" fill="#21262d"/><rect x="350" y="110" width="83" height="10" rx="3" fill="#292929"/><text x="500" y="120" fill="#c9d1d9" font-family="SFMono-Regular,Consolas,Liberation Mono,monospace" font-size="10" text-anchor="end">22</text><g transform="translate(25,128)"><rect width="20" height="20" rx="4" fill="#E34F26"/><text x="10" y="14" fill="#fff" font-family="-apple-system,BlinkMacSystemFont,Segoe UI,Noto Sans,sans-serif" font-size="8" font-weight="700" text-anchor="middle">HTML</text></g><text x="53" y="142" fill="#c9d1d9" font-family="SFMono-Regular,Consolas,Liberation Mono,monospace" font-size="11">.html</text><rect x="90" y="132" width="140" height="10" rx="3" fill="#21262d"/><rect x="90" y="132" width="83" height="10" rx="3" fill="#E34F26"/><text x="240" y="142" fill="#c9d1d9" font-family="SFMono-Regular,Consolas,Liberation Mono,monospace" font-size="10" text-anchor="end">22</text><g transform="translate(285,128)"><rect width="20" height="20" rx="4" fill="#083FA1"/><text x="10" y="14" fill="#fff" font-family="-apple-system,BlinkMacSystemFont,Segoe UI,Noto Sans,sans-serif" font-size="8" font-weight="700" text-anchor="middle">MD</text></g><text x="313" y="142" fill="#c9d1d9" font-family="SFMono-Regular,Consolas,Liberation Mono,monospace" font-size="11">.md</text><rect x="350" y="132" width="140" height="10" rx="3" fill="#21262d"/><rect x="350" y="132" width="41" height="10" rx="3" fill="#083FA1"/><text x="500" y="142" fill="#c9d1d9" font-family="SFMono-Regular,Consolas,Liberation Mono,monospace" font-size="10" text-anchor="end">11</text><text x="25" y="168" fill="#8b949e" font-family="-apple-system,BlinkMacSystemFont,Segoe UI,Noto Sans,sans-serif" font-size="9">↳ package.json</text></svg>