<svg xmlns="http://www.w3.org/2000/svg" width="550" height="150" viewBox="0 0 550 150"><rect width="550" height="150" fill="#0d1117" rx="10"/><rect x=".5" y=".5" width="549" height="149" fill="none" stroke="#21262d" rx="10"/><text x="25" y="28" fill="#58a6ff" font-family="-apple-system,BlinkMacSystemFont,Segoe UI,Noto Sans,sans-serif" font-size="15" font-weight="700">👻 GhostCommit <tspan fill="#8b949e" font-weight="400">- Today</tspan></text><text x="25" y="50" fill="#c9d1d9" font-family="SFMono-Regular,Consolas,Liberation Mono,monospace" font-size="11">71 commits</text><circle cx="108" cy="46" r="2" fill="#8b949e"/><text x="118" y="50" fill="#c9d1d9" font-family="SFMono-Regular,Consolas,Liberation Mono,monospace" font-size="11">5 echoes</text><circle cx="200" cy="46" r="2" fill="#8b949e"/><text x="210" y="50" fill="#c9d1d9" font-family="SFMono-Regular,Consolas,Liberation Mono,monospace" font-size="11">Hades-Agent · Landing Page</text><rect x="25" y="70" width="20" height="20" rx="4" fill="#F7DF1E"/><text x="35" y="84" fill="#1a1a2e" font-family="SFMono-Regular,Consolas,Liberation Mono,monospace" font-size="9" font-weight="700" text-anchor="middle">JS</text><text x="51" y="84" fill="#c9d1d9" font-family="SFMono-Regular,Consolas,Liberation Mono,monospace" font-size="11">.js</text><rect x="97" y="74" width="120" height="10" rx="3" fill="#21262d"/><rect x="97" y="74" width="120" height="10" rx="3" fill="#F7DF1E"/><text x="229" y="84" fill="#c9d1d9" font-family="SFMono-Regular,Consolas,Liberation Mono,monospace" font-size="11">29</text><rect x="290" y="70" width="20" height="20" rx="4" fill="#3178C6"/><text x="300" y="84" fill="#fff" font-family="SFMono-Regular,Consolas,Liberation Mono,monospace" font-size="9" font-weight="700" text-anchor="middle">TS</text><text x="316" y="84" fill="#c9d1d9" font-family="SFMono-Regular,Consolas,Liberation Mono,monospace" font-size="11">.tsx</text><rect x="362" y="74" width="120" height="10" rx="3" fill="#21262d"/><rect x="362" y="74" width="66" height="10" rx="3" fill="#3178C6"/><text x="494" y="84" fill="#c9d1d9" font-family="SFMono-Regular,Consolas,Liberation Mono,monospace" font-size="11">16</text><rect x="25" y="96" width="20" height="20" rx="4" fill="#E34F26"/><text x="35" y="110" fill="#fff" font-family="SFMono-Regular,Consolas,Liberation Mono,monospace" font-size="9" font-weight="700" text-anchor="middle">HT</text><text x="51" y="110" fill="#c9d1d9" font-family="SFMono-Regular,Consolas,Liberation Mono,monospace" font-size="11">.html</text><rect x="97" y="100" width="120" height="10" rx="3" fill="#21262d"/><rect x="97" y="100" width="37" height="10" rx="3" fill="#E34F26"/><text x="229" y="110" fill="#c9d1d9" font-family="SFMono-Regular,Consolas,Liberation Mono,monospace" font-size="11">9</text><rect x="290" y="96" width="20" height="20" rx="4" fill="#563D7C"/><text x="300" y="110" fill="#fff" font-family="SFMono-Regular,Consolas,Liberation Mono,monospace" font-size="9" font-weight="700" text-anchor="middle">CSS</text><text x="316" y="110" fill="#c9d1d9" font-family="SFMono-Regular,Consolas,Liberation Mono,monospace" font-size="11">.css</text><rect x="362" y="100" width="120" height="10" rx="3" fill="#21262d"/><rect x="362" y="100" width="37" height="10" rx="3" fill="#563D7C"/><text x="494" y="110" fill="#c9d1d9" font-family="SFMono-Regular,Consolas,Liberation Mono,monospace" font-size="11">9</text><text x="25" y="138" fill="#8b949e" font-family="SFMono-Regular,Consolas,Liberation Mono,monospace" font-size="11">↳ Splash.tsx</text><text x="525" y="138" fill="#8b949e" font-family="SFMono-Regular,Consolas,Liberation Mono,monospace" font-size="10" text-anchor="end">15:53 GMT-3</text></svg>